<mxfile host="app.diagrams.net" modified="2023-07-01T16:41:00.068Z" agent="Mozilla/5.0 (Windows NT 10.0; Win64; x64) AppleWebKit/537.36 (KHTML, like Gecko) Chrome/114.0.0.0 Safari/537.36" etag="1XDe5cERt3r2Ua3wptti" version="21.5.2" type="device" pages="2">
  <diagram name="Page-1" id="wwC2IdVTrFiAGjfDtSdi">
    <mxGraphModel dx="1050" dy="491" grid="1" gridSize="10" guides="1" tooltips="1" connect="1" arrows="1" fold="1" page="1" pageScale="1" pageWidth="827" pageHeight="1169" math="0" shadow="0">
      <root>
        <mxCell id="0" />
        <mxCell id="1" parent="0" />
        <mxCell id="-3T3SYVZbJK4mqNZ_vN--1" value="Modélisation et entraînement" style="html=1;shadow=0;dashed=0;shape=mxgraph.atlassian.issue;issueType=story;issuePriority=blocker;issueStatus=inProgress;verticalAlign=top;align=left;whiteSpace=wrap;overflow=hidden;spacingTop=25;strokeColor=#A8ADB0;fillColor=#EEEEEE;fontSize=12;backgroundOutline=1;sketch=0;" vertex="1" parent="1">
          <mxGeometry x="440" y="60" width="200" height="50" as="geometry" />
        </mxCell>
        <mxCell id="-3T3SYVZbJK4mqNZ_vN--2" value="2" style="strokeColor=none;fillColor=none;part=1;resizable=0;align=left;autosize=1;points=[];deletable=0;connectable=0;" vertex="1" parent="-3T3SYVZbJK4mqNZ_vN--1">
          <mxGeometry width="30" height="30" relative="1" as="geometry">
            <mxPoint x="20" y="-5" as="offset" />
          </mxGeometry>
        </mxCell>
        <mxCell id="-3T3SYVZbJK4mqNZ_vN--23" style="edgeStyle=orthogonalEdgeStyle;rounded=0;orthogonalLoop=1;jettySize=auto;html=1;" edge="1" parent="1" source="-3T3SYVZbJK4mqNZ_vN--3" target="-3T3SYVZbJK4mqNZ_vN--1">
          <mxGeometry relative="1" as="geometry" />
        </mxCell>
        <mxCell id="-3T3SYVZbJK4mqNZ_vN--3" value="Collecte et préparation des données " style="html=1;shadow=0;dashed=0;shape=mxgraph.atlassian.issue;issueType=story;issuePriority=blocker;issueStatus=inProgress;verticalAlign=top;align=left;whiteSpace=wrap;overflow=hidden;spacingTop=25;strokeColor=#A8ADB0;fillColor=#EEEEEE;fontSize=12;backgroundOutline=1;sketch=0;" vertex="1" parent="1">
          <mxGeometry x="40" y="60" width="200" height="50" as="geometry" />
        </mxCell>
        <mxCell id="-3T3SYVZbJK4mqNZ_vN--4" value="1" style="strokeColor=none;fillColor=none;part=1;resizable=0;align=left;autosize=1;points=[];deletable=0;connectable=0;" vertex="1" parent="-3T3SYVZbJK4mqNZ_vN--3">
          <mxGeometry width="30" height="30" relative="1" as="geometry">
            <mxPoint x="20" y="-5" as="offset" />
          </mxGeometry>
        </mxCell>
        <mxCell id="-3T3SYVZbJK4mqNZ_vN--24" style="edgeStyle=orthogonalEdgeStyle;rounded=0;orthogonalLoop=1;jettySize=auto;html=1;entryX=0;entryY=0.5;entryDx=0;entryDy=0;" edge="1" parent="1" source="-3T3SYVZbJK4mqNZ_vN--5" target="-3T3SYVZbJK4mqNZ_vN--11">
          <mxGeometry relative="1" as="geometry" />
        </mxCell>
        <mxCell id="-3T3SYVZbJK4mqNZ_vN--5" value="Création d&#39;interface&amp;nbsp; Djanjo" style="html=1;shadow=0;dashed=0;shape=mxgraph.atlassian.issue;issueType=story;issuePriority=blocker;issueStatus=inProgress;verticalAlign=top;align=left;whiteSpace=wrap;overflow=hidden;spacingTop=25;strokeColor=#A8ADB0;fillColor=#EEEEEE;fontSize=12;backgroundOutline=1;sketch=0;" vertex="1" parent="1">
          <mxGeometry x="40" y="230" width="200" height="50" as="geometry" />
        </mxCell>
        <mxCell id="-3T3SYVZbJK4mqNZ_vN--6" value="3" style="strokeColor=none;fillColor=none;part=1;resizable=0;align=left;autosize=1;points=[];deletable=0;connectable=0;" vertex="1" parent="-3T3SYVZbJK4mqNZ_vN--5">
          <mxGeometry width="30" height="30" relative="1" as="geometry">
            <mxPoint x="20" y="-5" as="offset" />
          </mxGeometry>
        </mxCell>
        <mxCell id="-3T3SYVZbJK4mqNZ_vN--7" value="Préparation du rapport" style="html=1;shadow=0;dashed=0;shape=mxgraph.atlassian.issue;issueType=story;issuePriority=blocker;issueStatus=inProgress;verticalAlign=top;align=left;whiteSpace=wrap;overflow=hidden;spacingTop=25;strokeColor=#A8ADB0;fillColor=#EEEEEE;fontSize=12;backgroundOutline=1;sketch=0;" vertex="1" parent="1">
          <mxGeometry x="240" y="470" width="200" height="50" as="geometry" />
        </mxCell>
        <mxCell id="-3T3SYVZbJK4mqNZ_vN--8" value="5" style="strokeColor=none;fillColor=none;part=1;resizable=0;align=left;autosize=1;points=[];deletable=0;connectable=0;" vertex="1" parent="-3T3SYVZbJK4mqNZ_vN--7">
          <mxGeometry width="30" height="30" relative="1" as="geometry">
            <mxPoint x="20" y="-5" as="offset" />
          </mxGeometry>
        </mxCell>
        <mxCell id="-3T3SYVZbJK4mqNZ_vN--11" value="implementation du model" style="html=1;shadow=0;dashed=0;shape=mxgraph.atlassian.issue;issueType=story;issuePriority=blocker;issueStatus=inProgress;verticalAlign=top;align=left;whiteSpace=wrap;overflow=hidden;spacingTop=25;strokeColor=#A8ADB0;fillColor=#EEEEEE;fontSize=12;backgroundOutline=1;sketch=0;" vertex="1" parent="1">
          <mxGeometry x="430" y="230" width="200" height="50" as="geometry" />
        </mxCell>
        <mxCell id="-3T3SYVZbJK4mqNZ_vN--12" value="4" style="strokeColor=none;fillColor=none;part=1;resizable=0;align=left;autosize=1;points=[];deletable=0;connectable=0;" vertex="1" parent="-3T3SYVZbJK4mqNZ_vN--11">
          <mxGeometry width="30" height="30" relative="1" as="geometry">
            <mxPoint x="20" y="-5" as="offset" />
          </mxGeometry>
        </mxCell>
        <mxCell id="-3T3SYVZbJK4mqNZ_vN--17" value="SORO Adam" style="shape=umlActor;html=1;verticalLabelPosition=bottom;verticalAlign=top;align=center;" vertex="1" parent="1">
          <mxGeometry x="770" y="40" width="30" height="60" as="geometry" />
        </mxCell>
        <mxCell id="-3T3SYVZbJK4mqNZ_vN--18" value="Adama&amp;nbsp; Ouedraogo" style="shape=umlActor;html=1;verticalLabelPosition=bottom;verticalAlign=top;align=center;" vertex="1" parent="1">
          <mxGeometry x="750" y="220" width="30" height="60" as="geometry" />
        </mxCell>
        <mxCell id="-3T3SYVZbJK4mqNZ_vN--20" value="Bernard" style="shape=umlActor;html=1;verticalLabelPosition=bottom;verticalAlign=top;align=center;" vertex="1" parent="1">
          <mxGeometry x="890" y="40" width="30" height="60" as="geometry" />
        </mxCell>
        <mxCell id="-3T3SYVZbJK4mqNZ_vN--21" value="Laurent" style="shape=umlActor;html=1;verticalLabelPosition=bottom;verticalAlign=top;align=center;" vertex="1" parent="1">
          <mxGeometry x="780" y="450" width="30" height="60" as="geometry" />
        </mxCell>
        <mxCell id="-3T3SYVZbJK4mqNZ_vN--26" value="projet reconnaissance vocale: répartition des tache" style="text;html=1;strokeColor=none;fillColor=none;align=center;verticalAlign=middle;whiteSpace=wrap;rounded=0;" vertex="1" parent="1">
          <mxGeometry x="270" width="310" height="30" as="geometry" />
        </mxCell>
        <mxCell id="nEcMXwVicqFp5TUuQOoN-1" value="&amp;amp;" style="text;html=1;strokeColor=none;fillColor=none;align=center;verticalAlign=middle;whiteSpace=wrap;rounded=0;" vertex="1" parent="1">
          <mxGeometry x="820" y="70" width="60" height="30" as="geometry" />
        </mxCell>
      </root>
    </mxGraphModel>
  </diagram>
  <diagram id="iEeEHP9Uko7Awum6Jxkk" name="Page-2">
    <mxGraphModel dx="1050" dy="491" grid="1" gridSize="10" guides="1" tooltips="1" connect="1" arrows="1" fold="1" page="1" pageScale="1" pageWidth="827" pageHeight="1169" math="0" shadow="0">
      <root>
        <mxCell id="0" />
        <mxCell id="1" parent="0" />
        <mxCell id="cvg2ANKBFEhbNFR2cPq_-2" value="Actor" style="shape=umlActor;verticalLabelPosition=bottom;verticalAlign=top;html=1;outlineConnect=0;" vertex="1" parent="1">
          <mxGeometry x="680" y="200" width="30" height="60" as="geometry" />
        </mxCell>
        <mxCell id="cvg2ANKBFEhbNFR2cPq_-6" value="" style="endArrow=none;dashed=1;html=1;dashPattern=1 3;strokeWidth=2;rounded=0;" edge="1" parent="1" source="cvg2ANKBFEhbNFR2cPq_-9">
          <mxGeometry width="50" height="50" relative="1" as="geometry">
            <mxPoint x="520" y="380" as="sourcePoint" />
            <mxPoint x="520" y="30" as="targetPoint" />
          </mxGeometry>
        </mxCell>
        <object placeholders="1" c4Name="System name" c4Type="SystemScopeBoundary" c4Application="Software System" label="&lt;font style=&quot;font-size: 16px&quot;&gt;&lt;b&gt;&lt;div style=&quot;text-align: left&quot;&gt;%c4Name%&lt;/div&gt;&lt;/b&gt;&lt;/font&gt;&lt;div style=&quot;text-align: left&quot;&gt;[%c4Application%]&lt;/div&gt;" id="cvg2ANKBFEhbNFR2cPq_-8">
          <mxCell style="rounded=1;fontSize=11;whiteSpace=wrap;html=1;dashed=1;arcSize=20;fillColor=none;strokeColor=#666666;fontColor=#333333;labelBackgroundColor=none;align=left;verticalAlign=bottom;labelBorderColor=none;spacingTop=0;spacing=10;dashPattern=8 4;metaEdit=1;rotatable=0;perimeter=rectanglePerimeter;noLabel=0;labelPadding=0;allowArrows=0;connectable=0;expand=0;recursiveResize=0;editable=1;pointerEvents=0;absoluteArcSize=1;points=[[0.25,0,0],[0.5,0,0],[0.75,0,0],[1,0.25,0],[1,0.5,0],[1,0.75,0],[0.75,1,0],[0.5,1,0],[0.25,1,0],[0,0.75,0],[0,0.5,0],[0,0.25,0]];" vertex="1" parent="1">
            <mxGeometry x="100" y="10" width="420" height="390" as="geometry" />
          </mxCell>
        </object>
        <mxCell id="2Ncrr52zgV3a-UVqfRLn-2" value="" style="shape=flexArrow;endArrow=classic;startArrow=classic;html=1;rounded=0;" edge="1" parent="1" source="cvg2ANKBFEhbNFR2cPq_-5" target="cvg2ANKBFEhbNFR2cPq_-9">
          <mxGeometry width="100" height="100" relative="1" as="geometry">
            <mxPoint x="150" y="219.5" as="sourcePoint" />
            <mxPoint x="300" y="219.5" as="targetPoint" />
          </mxGeometry>
        </mxCell>
        <mxCell id="JrqcyW5sdAttg_wPw2Bu-1" value="" style="endArrow=none;dashed=1;html=1;dashPattern=1 3;strokeWidth=2;rounded=0;" edge="1" parent="1" target="cvg2ANKBFEhbNFR2cPq_-9">
          <mxGeometry width="50" height="50" relative="1" as="geometry">
            <mxPoint x="520" y="380" as="sourcePoint" />
            <mxPoint x="520" y="30" as="targetPoint" />
          </mxGeometry>
        </mxCell>
        <mxCell id="cvg2ANKBFEhbNFR2cPq_-9" value="" style="shape=image;html=1;verticalLabelPosition=bottom;verticalAlign=top;imageAspect=0;image=img/clipart/Gear_128x128.png" vertex="1" parent="1">
          <mxGeometry x="490" y="190" width="50" height="60" as="geometry" />
        </mxCell>
        <mxCell id="JrqcyW5sdAttg_wPw2Bu-2" value="" style="shape=flexArrow;endArrow=classic;startArrow=classic;html=1;rounded=0;" edge="1" parent="1" target="cvg2ANKBFEhbNFR2cPq_-5">
          <mxGeometry width="100" height="100" relative="1" as="geometry">
            <mxPoint x="150" y="219.5" as="sourcePoint" />
            <mxPoint x="480" y="220" as="targetPoint" />
          </mxGeometry>
        </mxCell>
        <mxCell id="cvg2ANKBFEhbNFR2cPq_-5" value="model" style="label;whiteSpace=wrap;html=1;align=center;verticalAlign=bottom;spacingLeft=0;spacingBottom=4;imageAlign=center;imageVerticalAlign=top;image=img/clipart/Gear_128x128.png" vertex="1" parent="1">
          <mxGeometry x="110" y="180" width="120" height="80" as="geometry" />
        </mxCell>
      </root>
    </mxGraphModel>
  </diagram>
</mxfile>
